<svg width="20" height="20" viewBox="0 0 20 20" fill="none" xmlns="http://www.w3.org/2000/svg">
<path d="M11.0297 4.72778L12.8285 2.92897C14 1.7574 15.8995 1.7574 17.0711 2.92897C18.2427 4.10055 18.2427 6.00004 17.0711 7.17161L13.5356 10.7071C12.364 11.8787 10.4645 11.8787 9.29293 10.7071C9.09961 10.5138 8.93819 10.3007 8.80867 10.0743C8.47098 10.2202 8.15465 10.4312 7.8787 10.7071L7.24232 11.3435C7.42442 11.6184 7.63655 11.8792 7.87872 12.1214C9.83134 14.074 12.9972 14.074 14.9498 12.1214L18.4853 8.58583C20.4379 6.63321 20.4379 3.46738 18.4853 1.51476C16.5327 -0.437862 13.3669 -0.437863 11.4143 1.51476L8.71201 4.217C9.50182 4.25419 10.2865 4.42445 11.0297 4.72778Z" fill="#D23F00"/>
<path d="M1.51476 11.4143C-0.437862 13.3669 -0.437862 16.5327 1.51476 18.4853C3.46738 20.4379 6.6332 20.4379 8.58583 18.4853L11.4857 15.5855C10.6654 15.5938 9.84401 15.4588 9.06216 15.1806L7.17161 17.0711C6.00004 18.2427 4.10055 18.2427 2.92897 17.0711C1.7574 15.8995 1.7574 14 2.92897 12.8285L6.46451 9.29293C7.63608 8.12136 9.53557 8.12136 10.7071 9.29293C10.9005 9.48624 11.0619 9.69937 11.1914 9.92578C11.5291 9.77982 11.8454 9.56887 12.1213 9.29293L12.7577 8.65654C12.5756 8.38169 12.3635 8.12088 12.1214 7.87872C10.1687 5.9261 7.00291 5.9261 5.05029 7.87872L1.51476 11.4143Z" fill="#D23F00"/>
</svg>
