<svg width="129" height="251" viewBox="0 0 129 251" fill="none" xmlns="http://www.w3.org/2000/svg">
<path d="M43 18.3561C52.6842 15.3239 64.6842 15.1073 75 18.3561V228H43V18.3561Z" fill="#E5E8E9"/>
<path d="M43 21C52.6842 17.9678 64.6842 17.7512 75 21M43 18.3561C52.6842 15.3239 64.6842 15.1073 75 18.3561V228H43V18.3561Z" stroke="url(#paint0_linear_34802_1628)"/>
<g filter="url(#filter0_d_34802_1628)">
<path d="M15.206 222.518C23.1928 149.195 31.2035 75.6535 39.1906 39.712C41.1748 30.7829 43.1576 24.1745 45.1383 20.4666C45.3193 20.1277 45.7729 20.2125 45.8526 20.5884C46.959 25.8071 47.8433 32.441 48.545 40.2143C52.4147 83.0777 50.7349 160.584 50.1486 226.474C50.1453 226.835 49.915 227.154 49.5728 227.269C37.0835 231.485 24.6484 230.264 15.4333 225.195C15.1345 225.031 14.9681 224.702 15.0051 224.362L15.206 222.518Z" fill="url(#paint1_linear_34802_1628)"/>
<path d="M15.206 222.518C23.1928 149.195 31.2035 75.6535 39.1906 39.712C41.1748 30.7829 43.1576 24.1745 45.1383 20.4666C45.3193 20.1277 45.7729 20.2125 45.8526 20.5884C46.959 25.8071 47.8433 32.441 48.545 40.2143C52.4147 83.0777 50.7349 160.584 50.1486 226.474C50.1453 226.835 49.915 227.154 49.5728 227.269C37.0835 231.485 24.6484 230.264 15.4333 225.195C15.1345 225.031 14.9681 224.702 15.0051 224.362L15.206 222.518Z" fill="url(#paint2_linear_34802_1628)" fill-opacity="0.2"/>
</g>
<path d="M45.8603 21.2212C45.7806 20.8453 45.327 20.7606 45.1459 21.0994C43.1653 24.8073 41.3934 30.664 39.4092 39.5931L48.4131 40.0858C47.7113 32.3125 46.9667 26.4399 45.8603 21.2212Z" fill="url(#paint3_linear_34802_1628)"/>
<g filter="url(#filter1_d_34802_1628)">
<path d="M39.6513 39.4551C41.4065 31.5699 42.8832 25.8873 44.535 22.1778C44.8997 21.3586 45.9956 21.5225 46.1675 22.4025C47.1194 27.2758 47.8975 33.2547 48.5298 40.1439M39.6513 39.4551C42.8017 40.2498 45.5106 40.3053 48.5298 40.1439M39.6513 39.4551C33.7903 65.7859 27.5026 113.532 21.6349 165.446M48.5298 40.1439C51.3101 70.435 51.2731 118.899 50.8059 167.76M21.6349 165.446C28.8655 168.701 41.0855 169.915 50.8059 167.76M21.6349 165.446C19.991 179.99 18.3475 194.951 16.705 210.002M50.8059 167.76C50.6642 182.574 50.483 197.477 50.3288 212.006M16.705 210.002C16.1272 215.295 15.6607 219.797 15.0833 225.099C24.4833 230.476 37.3795 231.777 50.2823 227.25C50.3288 221.969 50.2713 217.415 50.3288 212.006M16.705 210.002C22.5023 214.203 44.6933 214.615 50.3288 212.006M16.2321 214.337C22.0295 218.538 44.6466 219.093 50.282 216.484" stroke="url(#paint4_linear_34802_1628)" stroke-width="2" shape-rendering="crispEdges"/>
</g>
<g filter="url(#filter2_d_34802_1628)">
<path d="M101.794 222.518C93.8072 149.195 85.7965 75.6534 77.8094 39.7119C75.8252 30.7828 73.8424 24.6687 71.8617 20.9608C71.6807 20.6219 71.2271 20.7066 71.1474 21.0825C70.041 26.3012 69.1567 32.4409 68.455 40.2141C64.5853 83.0776 66.2651 160.584 66.8514 226.474C66.8547 226.835 67.085 227.154 67.4272 227.269C79.9165 231.485 92.3516 230.264 101.567 225.195C101.865 225.031 102.032 224.701 101.995 224.362L101.794 222.518Z" fill="url(#paint5_linear_34802_1628)"/>
<path d="M101.794 222.518C93.8072 149.195 85.7965 75.6534 77.8094 39.7119C75.8252 30.7828 73.8424 24.6687 71.8617 20.9608C71.6807 20.6219 71.2271 20.7066 71.1474 21.0825C70.041 26.3012 69.1567 32.4409 68.455 40.2141C64.5853 83.0776 66.2651 160.584 66.8514 226.474C66.8547 226.835 67.085 227.154 67.4272 227.269C79.9165 231.485 92.3516 230.264 101.567 225.195C101.865 225.031 102.032 224.701 101.995 224.362L101.794 222.518Z" fill="url(#paint6_linear_34802_1628)" fill-opacity="0.2"/>
</g>
<path d="M71.1396 21.0815C71.2193 20.7056 71.6729 20.6209 71.8539 20.9598C73.8346 24.6677 75.6064 30.6638 77.5907 39.5929L68.5868 40.0856C69.2886 32.3123 70.0332 26.3002 71.1396 21.0815Z" fill="url(#paint7_linear_34802_1628)"/>
<g filter="url(#filter3_d_34802_1628)">
<path d="M77.3487 39.4551C75.5935 31.5699 74.1168 25.8873 72.465 22.1778C72.1003 21.3586 71.0044 21.5225 70.8325 22.4025C69.8806 27.2758 69.1025 33.2547 68.4702 40.1439M77.3487 39.4551C74.1982 40.2498 71.4894 40.3053 68.4702 40.1439M77.3487 39.4551C83.2097 65.7859 89.4974 113.532 95.3651 165.446M68.4702 40.1439C65.6899 70.4349 65.7269 118.899 66.1941 167.76M95.3651 165.446C88.1345 168.701 75.9145 169.915 66.1941 167.76M95.3651 165.446C97.009 179.99 98.6525 194.951 100.295 210.002M66.1941 167.76C66.3358 182.574 66.517 197.477 66.6712 212.006M100.295 210.002C100.873 215.295 101.339 219.797 101.917 225.099C92.5167 230.476 79.6205 231.777 66.7177 227.251C66.6712 221.969 66.7287 217.415 66.6712 212.006M100.295 210.002C94.4977 214.203 72.3067 214.615 66.6712 212.006M100.768 214.337C94.9705 218.538 72.3534 219.093 66.718 216.484" stroke="url(#paint8_linear_34802_1628)" stroke-width="2" shape-rendering="crispEdges"/>
</g>
<path d="M66.6568 168.183C76.1569 170.304 88.0999 169.11 95.1667 165.905C96.7733 180.219 98.3795 194.943 99.9849 209.755C94.3189 213.89 72.6309 214.296 67.1231 211.728C66.9724 197.429 66.7953 182.762 66.6568 168.183Z" fill="url(#paint9_linear_34802_1628)"/>
<path d="M50.3433 168.183C40.8432 170.304 28.9002 169.11 21.8334 165.905C20.2268 180.219 18.6206 194.943 17.0153 209.755C22.6812 213.89 44.3692 214.296 49.877 211.728C50.0277 197.429 50.2048 182.762 50.3433 168.183Z" fill="url(#paint10_linear_34802_1628)"/>
<defs>
<filter id="filter0_d_34802_1628" x="1" y="0.253906" width="76.0179" height="249.568" filterUnits="userSpaceOnUse" color-interpolation-filters="sRGB">
<feFlood flood-opacity="0" result="BackgroundImageFix"/>
<feColorMatrix in="SourceAlpha" type="matrix" values="0 0 0 0 0 0 0 0 0 0 0 0 0 0 0 0 0 0 127 0" result="hardAlpha"/>
<feOffset dx="6"/>
<feGaussianBlur stdDeviation="10"/>
<feComposite in2="hardAlpha" operator="out"/>
<feColorMatrix type="matrix" values="0 0 0 0 0.463368 0 0 0 0 0.505344 0 0 0 0 0.654167 0 0 0 0.32 0"/>
<feBlend mode="normal" in2="BackgroundImageFix" result="effect1_dropShadow_34802_1628"/>
<feBlend mode="normal" in="SourceGraphic" in2="effect1_dropShadow_34802_1628" result="shape"/>
</filter>
<filter id="filter1_d_34802_1628" x="0.0181885" y="0.644531" width="78.0277" height="250.355" filterUnits="userSpaceOnUse" color-interpolation-filters="sRGB">
<feFlood flood-opacity="0" result="BackgroundImageFix"/>
<feColorMatrix in="SourceAlpha" type="matrix" values="0 0 0 0 0 0 0 0 0 0 0 0 0 0 0 0 0 0 127 0" result="hardAlpha"/>
<feOffset dx="6"/>
<feGaussianBlur stdDeviation="10"/>
<feComposite in2="hardAlpha" operator="out"/>
<feColorMatrix type="matrix" values="0 0 0 0 0.463368 0 0 0 0 0.505344 0 0 0 0 0.654167 0 0 0 0.32 0"/>
<feBlend mode="normal" in2="BackgroundImageFix" result="effect1_dropShadow_34802_1628"/>
<feBlend mode="normal" in="SourceGraphic" in2="effect1_dropShadow_34802_1628" result="shape"/>
</filter>
<filter id="filter2_d_34802_1628" x="51.9821" y="0.748047" width="76.0179" height="249.074" filterUnits="userSpaceOnUse" color-interpolation-filters="sRGB">
<feFlood flood-opacity="0" result="BackgroundImageFix"/>
<feColorMatrix in="SourceAlpha" type="matrix" values="0 0 0 0 0 0 0 0 0 0 0 0 0 0 0 0 0 0 127 0" result="hardAlpha"/>
<feOffset dx="6"/>
<feGaussianBlur stdDeviation="10"/>
<feComposite in2="hardAlpha" operator="out"/>
<feColorMatrix type="matrix" values="0 0 0 0 0.463368 0 0 0 0 0.505344 0 0 0 0 0.654167 0 0 0 0.32 0"/>
<feBlend mode="normal" in2="BackgroundImageFix" result="effect1_dropShadow_34802_1628"/>
<feBlend mode="normal" in="SourceGraphic" in2="effect1_dropShadow_34802_1628" result="shape"/>
</filter>
<filter id="filter3_d_34802_1628" x="50.9541" y="0.644531" width="78.0277" height="250.355" filterUnits="userSpaceOnUse" color-interpolation-filters="sRGB">
<feFlood flood-opacity="0" result="BackgroundImageFix"/>
<feColorMatrix in="SourceAlpha" type="matrix" values="0 0 0 0 0 0 0 0 0 0 0 0 0 0 0 0 0 0 127 0" result="hardAlpha"/>
<feOffset dx="6"/>
<feGaussianBlur stdDeviation="10"/>
<feComposite in2="hardAlpha" operator="out"/>
<feColorMatrix type="matrix" values="0 0 0 0 0.463368 0 0 0 0 0.505344 0 0 0 0 0.654167 0 0 0 0.32 0"/>
<feBlend mode="normal" in2="BackgroundImageFix" result="effect1_dropShadow_34802_1628"/>
<feBlend mode="normal" in="SourceGraphic" in2="effect1_dropShadow_34802_1628" result="shape"/>
</filter>
<linearGradient id="paint0_linear_34802_1628" x1="23.1212" y1="57.5" x2="83.731" y2="55.6193" gradientUnits="userSpaceOnUse">
<stop stop-color="#AFB1C6"/>
<stop offset="1" stop-color="#DFE0E8"/>
</linearGradient>
<linearGradient id="paint1_linear_34802_1628" x1="56.8813" y1="122.032" x2="18.3438" y2="119.785" gradientUnits="userSpaceOnUse">
<stop offset="0.283407" stop-color="#ECEDEE"/>
<stop offset="0.607942" stop-color="#DADEE0"/>
</linearGradient>
<linearGradient id="paint2_linear_34802_1628" x1="51.0179" y1="129.547" x2="22.7372" y2="127.096" gradientUnits="userSpaceOnUse">
<stop offset="0.466426" stop-color="#ABB4BD" stop-opacity="0"/>
<stop offset="0.831205" stop-color="#677582"/>
</linearGradient>
<linearGradient id="paint3_linear_34802_1628" x1="38.8755" y1="31.485" x2="49.4156" y2="31.8881" gradientUnits="userSpaceOnUse">
<stop offset="0.128571" stop-color="#AB3300"/>
<stop offset="0.426601" stop-color="#D23F00"/>
</linearGradient>
<linearGradient id="paint4_linear_34802_1628" x1="20.4254" y1="107.812" x2="54.6169" y2="109.65" gradientUnits="userSpaceOnUse">
<stop stop-color="#9FA3C0"/>
<stop offset="1" stop-color="#BCBCC5"/>
</linearGradient>
<linearGradient id="paint5_linear_34802_1628" x1="60.1187" y1="122.032" x2="98.6562" y2="119.785" gradientUnits="userSpaceOnUse">
<stop offset="0.283407" stop-color="#ECEDEE"/>
<stop offset="0.607942" stop-color="#DADEE0"/>
</linearGradient>
<linearGradient id="paint6_linear_34802_1628" x1="68.0786" y1="126.975" x2="94.2515" y2="127.082" gradientUnits="userSpaceOnUse">
<stop offset="0.125" stop-color="#677582"/>
<stop offset="0.466426" stop-color="#ABB4BD" stop-opacity="0"/>
</linearGradient>
<linearGradient id="paint7_linear_34802_1628" x1="78.1243" y1="31.4847" x2="67.5843" y2="31.8878" gradientUnits="userSpaceOnUse">
<stop offset="0.364583" stop-color="#D23F00"/>
<stop offset="0.890625" stop-color="#AB3300"/>
</linearGradient>
<linearGradient id="paint8_linear_34802_1628" x1="96.5746" y1="107.812" x2="62.3831" y2="109.65" gradientUnits="userSpaceOnUse">
<stop stop-color="#F2F2F2"/>
<stop offset="1" stop-color="#9FA3C0"/>
</linearGradient>
<linearGradient id="paint9_linear_34802_1628" x1="101.96" y1="192.616" x2="63.0235" y2="194.904" gradientUnits="userSpaceOnUse">
<stop offset="0.49561" stop-color="#D23F00"/>
<stop offset="0.91766" stop-color="#AB3300"/>
</linearGradient>
<linearGradient id="paint10_linear_34802_1628" x1="15.04" y1="192.616" x2="53.9766" y2="194.904" gradientUnits="userSpaceOnUse">
<stop offset="0.128571" stop-color="#AB3300"/>
<stop offset="0.426601" stop-color="#D23F00"/>
</linearGradient>
</defs>
</svg>
