<svg width="34" height="62" viewBox="0 0 34 62" fill="none" xmlns="http://www.w3.org/2000/svg">
<path d="M33 3.35609C22.6842 0.107273 10.6842 0.323865 1 3.35609V61C10.6842 57.9678 22.6842 57.7512 33 61V3.35609Z" fill="url(#paint0_linear_73_2589)"/>
<path d="M33 3.35609C22.6842 0.107273 10.6842 0.323865 1 3.35609V61C10.6842 57.9678 22.6842 57.7512 33 61V3.35609Z" fill="url(#paint1_linear_73_2589)" fill-opacity="0.2"/>
<path d="M33 3.35609C22.6842 0.107273 10.6842 0.323865 1 3.35609V61C10.6842 57.9678 22.6842 57.7512 33 61V3.35609Z" stroke="url(#paint2_linear_73_2589)"/>
<defs>
<linearGradient id="paint0_linear_73_2589" x1="38.2093" y1="30.1393" x2="4.23726" y2="28.4539" gradientUnits="userSpaceOnUse">
<stop offset="0.302083" stop-color="#ECEDEE"/>
<stop offset="0.567708" stop-color="#DADEE0"/>
</linearGradient>
<linearGradient id="paint1_linear_73_2589" x1="33" y1="32.291" x2="1.029" y2="31.3281" gradientUnits="userSpaceOnUse">
<stop offset="0.589227" stop-color="#ABB4BD" stop-opacity="0"/>
<stop offset="1" stop-color="#677582"/>
</linearGradient>
<linearGradient id="paint2_linear_73_2589" x1="-18.8788" y1="22.1968" x2="41.4072" y2="17.3972" gradientUnits="userSpaceOnUse">
<stop stop-color="#AFB1C6"/>
<stop offset="1" stop-color="#DFE0E8"/>
</linearGradient>
</defs>
</svg>
